# MagicaVoxel @ Ephtracy

# group
g InProgressBuilding

# material
mtllib InProgressBuilding.mtl
usemtl palette

# normals
vn -1 0 0
vn 1 0 0
vn 0 0 1
vn 0 0 -1
vn 0 -1 0
vn 0 1 0

# texcoords
vt 0.720703 0.5
vt 0.724609 0.5
vt 0.728516 0.5
vt 0.736328 0.5

# verts
v -15.5 0 15.5
v -15.5 0 -15.5
v -15.5 1 14.5
v -15.5 1 5.5
v -15.5 1 4.5
v -15.5 1 -4.5
v -15.5 1 -5.5
v -15.5 1 -14.5
v -15.5 10 14.5
v -15.5 10 5.5
v -15.5 10 4.5
v -15.5 10 -4.5
v -15.5 10 -5.5
v -15.5 10 -14.5
v -15.5 11 14.5
v -15.5 11 5.5
v -15.5 11 4.5
v -15.5 11 -4.5
v -15.5 11 -5.5
v -15.5 11 -14.5
v -15.5 20 14.5
v -15.5 20 5.5
v -15.5 20 4.5
v -15.5 20 -4.5
v -15.5 20 -5.5
v -15.5 20 -14.5
v -15.5 21 14.5
v -15.5 21 5.5
v -15.5 21 4.5
v -15.5 21 -4.5
v -15.5 21 -5.5
v -15.5 21 -14.5
v -15.5 30 14.5
v -15.5 30 5.5
v -15.5 30 4.5
v -15.5 30 -4.5
v -15.5 30 -5.5
v -15.5 30 -14.5
v -15.5 31 15.5
v -15.5 31 -15.5
v 15.5 0 15.5
v 15.5 0 -15.5
v 15.5 1 14.5
v 15.5 1 5.5
v 15.5 1 4.5
v 15.5 1 -4.5
v 15.5 1 -5.5
v 15.5 1 -14.5
v 15.5 10 14.5
v 15.5 10 5.5
v 15.5 10 4.5
v 15.5 10 -4.5
v 15.5 10 -5.5
v 15.5 10 -14.5
v 15.5 11 14.5
v 15.5 11 5.5
v 15.5 11 4.5
v 15.5 11 -4.5
v 15.5 11 -5.5
v 15.5 11 -14.5
v 15.5 20 14.5
v 15.5 20 5.5
v 15.5 20 4.5
v 15.5 20 -4.5
v 15.5 20 -5.5
v 15.5 20 -14.5
v 15.5 21 14.5
v 15.5 21 5.5
v 15.5 21 4.5
v 15.5 21 -4.5
v 15.5 21 -5.5
v 15.5 21 -14.5
v 15.5 30 14.5
v 15.5 30 5.5
v 15.5 30 4.5
v 15.5 30 -4.5
v 15.5 30 -5.5
v 15.5 30 -14.5
v 15.5 31 15.5
v 15.5 31 -15.5
v -15.5 0 15.5
v -15.5 31 15.5
v -14.5 1 15.5
v -14.5 10 15.5
v -14.5 11 15.5
v -14.5 20 15.5
v -14.5 21 15.5
v -14.5 30 15.5
v -5.5 1 15.5
v -5.5 10 15.5
v -5.5 11 15.5
v -5.5 20 15.5
v -5.5 21 15.5
v -5.5 30 15.5
v -4.5 1 15.5
v -4.5 10 15.5
v -4.5 11 15.5
v -4.5 20 15.5
v -4.5 21 15.5
v -4.5 30 15.5
v 4.5 1 15.5
v 4.5 10 15.5
v 4.5 11 15.5
v 4.5 20 15.5
v 4.5 21 15.5
v 4.5 30 15.5
v 5.5 1 15.5
v 5.5 10 15.5
v 5.5 11 15.5
v 5.5 20 15.5
v 5.5 21 15.5
v 5.5 30 15.5
v 14.5 1 15.5
v 14.5 10 15.5
v 14.5 11 15.5
v 14.5 20 15.5
v 14.5 21 15.5
v 14.5 30 15.5
v 15.5 0 15.5
v 15.5 31 15.5
v -15.5 0 -15.5
v -15.5 31 -15.5
v -14.5 1 -15.5
v -14.5 10 -15.5
v -14.5 11 -15.5
v -14.5 20 -15.5
v -14.5 21 -15.5
v -14.5 30 -15.5
v -5.5 1 -15.5
v -5.5 10 -15.5
v -5.5 11 -15.5
v -5.5 20 -15.5
v -5.5 21 -15.5
v -5.5 30 -15.5
v -4.5 1 -15.5
v -4.5 10 -15.5
v -4.5 11 -15.5
v -4.5 20 -15.5
v -4.5 21 -15.5
v -4.5 30 -15.5
v 4.5 1 -15.5
v 4.5 10 -15.5
v 4.5 11 -15.5
v 4.5 20 -15.5
v 4.5 21 -15.5
v 4.5 30 -15.5
v 5.5 1 -15.5
v 5.5 10 -15.5
v 5.5 11 -15.5
v 5.5 20 -15.5
v 5.5 21 -15.5
v 5.5 30 -15.5
v 14.5 1 -15.5
v 14.5 10 -15.5
v 14.5 11 -15.5
v 14.5 20 -15.5
v 14.5 21 -15.5
v 14.5 30 -15.5
v 15.5 0 -15.5
v 15.5 31 -15.5
v -15.5 0 15.5
v 15.5 0 15.5
v -14.5 0 14.5
v -5.5 0 14.5
v -4.5 0 14.5
v 4.5 0 14.5
v 5.5 0 14.5
v 14.5 0 14.5
v -14.5 0 5.5
v -5.5 0 5.5
v -4.5 0 5.5
v 4.5 0 5.5
v 5.5 0 5.5
v 14.5 0 5.5
v -14.5 0 4.5
v -5.5 0 4.5
v -4.5 0 4.5
v 4.5 0 4.5
v 5.5 0 4.5
v 14.5 0 4.5
v -14.5 0 -4.5
v -5.5 0 -4.5
v -4.5 0 -4.5
v 4.5 0 -4.5
v 5.5 0 -4.5
v 14.5 0 -4.5
v -14.5 0 -5.5
v -5.5 0 -5.5
v -4.5 0 -5.5
v 4.5 0 -5.5
v 5.5 0 -5.5
v 14.5 0 -5.5
v -14.5 0 -14.5
v -5.5 0 -14.5
v -4.5 0 -14.5
v 4.5 0 -14.5
v 5.5 0 -14.5
v 14.5 0 -14.5
v -15.5 0 -15.5
v 15.5 0 -15.5
v -15.5 31 15.5
v 15.5 31 15.5
v -14.5 31 14.5
v -5.5 31 14.5
v -4.5 31 14.5
v 4.5 31 14.5
v 5.5 31 14.5
v 14.5 31 14.5
v -14.5 31 5.5
v -5.5 31 5.5
v -4.5 31 5.5
v 4.5 31 5.5
v 5.5 31 5.5
v 14.5 31 5.5
v -14.5 31 4.5
v -5.5 31 4.5
v -4.5 31 4.5
v 4.5 31 4.5
v 5.5 31 4.5
v 14.5 31 4.5
v -14.5 31 -4.5
v -5.5 31 -4.5
v -4.5 31 -4.5
v 4.5 31 -4.5
v 5.5 31 -4.5
v 14.5 31 -4.5
v -14.5 31 -5.5
v -5.5 31 -5.5
v -4.5 31 -5.5
v 4.5 31 -5.5
v 5.5 31 -5.5
v 14.5 31 -5.5
v -14.5 31 -14.5
v -5.5 31 -14.5
v -4.5 31 -14.5
v 4.5 31 -14.5
v 5.5 31 -14.5
v 14.5 31 -14.5
v -15.5 31 -15.5
v 15.5 31 -15.5

# faces
f 3/4/1 2/4/1 1/4/1
f 4/4/1 2/4/1 3/4/1
f 5/4/1 2/4/1 4/4/1
f 6/4/1 2/4/1 5/4/1
f 7/4/1 2/4/1 6/4/1
f 8/4/1 2/4/1 7/4/1
f 9/4/1 3/4/1 1/4/1
f 9/1/1 4/1/1 3/1/1
f 10/4/1 5/4/1 4/4/1
f 10/1/1 4/1/1 9/1/1
f 11/3/1 6/3/1 5/3/1
f 11/4/1 5/4/1 10/4/1
f 12/4/1 7/4/1 6/4/1
f 12/3/1 6/3/1 11/3/1
f 13/1/1 8/1/1 7/1/1
f 13/4/1 7/4/1 12/4/1
f 14/4/1 2/4/1 8/4/1
f 14/1/1 8/1/1 13/1/1
f 15/4/1 13/4/1 12/4/1
f 15/4/1 12/4/1 11/4/1
f 15/4/1 14/4/1 13/4/1
f 15/4/1 11/4/1 10/4/1
f 15/4/1 10/4/1 9/4/1
f 15/4/1 9/4/1 1/4/1
f 16/4/1 14/4/1 15/4/1
f 17/4/1 14/4/1 16/4/1
f 18/4/1 14/4/1 17/4/1
f 19/4/1 14/4/1 18/4/1
f 20/4/1 2/4/1 14/4/1
f 20/4/1 14/4/1 19/4/1
f 21/4/1 15/4/1 1/4/1
f 21/2/1 16/2/1 15/2/1
f 22/4/1 17/4/1 16/4/1
f 22/2/1 16/2/1 21/2/1
f 23/1/1 18/1/1 17/1/1
f 23/4/1 17/4/1 22/4/1
f 24/4/1 19/4/1 18/4/1
f 24/1/1 18/1/1 23/1/1
f 25/2/1 20/2/1 19/2/1
f 25/4/1 19/4/1 24/4/1
f 26/4/1 2/4/1 20/4/1
f 26/2/1 20/2/1 25/2/1
f 27/4/1 23/4/1 22/4/1
f 27/4/1 25/4/1 24/4/1
f 27/4/1 26/4/1 25/4/1
f 27/4/1 22/4/1 21/4/1
f 27/4/1 21/4/1 1/4/1
f 27/4/1 24/4/1 23/4/1
f 28/4/1 26/4/1 27/4/1
f 29/4/1 26/4/1 28/4/1
f 30/4/1 26/4/1 29/4/1
f 31/4/1 26/4/1 30/4/1
f 32/4/1 2/4/1 26/4/1
f 32/4/1 26/4/1 31/4/1
f 33/4/1 27/4/1 1/4/1
f 33/3/1 28/3/1 27/3/1
f 34/4/1 29/4/1 28/4/1
f 34/3/1 28/3/1 33/3/1
f 35/1/1 30/1/1 29/1/1
f 35/4/1 29/4/1 34/4/1
f 36/4/1 31/4/1 30/4/1
f 36/1/1 30/1/1 35/1/1
f 37/3/1 32/3/1 31/3/1
f 37/4/1 31/4/1 36/4/1
f 38/4/1 2/4/1 32/4/1
f 38/3/1 32/3/1 37/3/1
f 39/4/1 35/4/1 34/4/1
f 39/4/1 37/4/1 36/4/1
f 39/4/1 38/4/1 37/4/1
f 39/4/1 34/4/1 33/4/1
f 39/4/1 33/4/1 1/4/1
f 39/4/1 36/4/1 35/4/1
f 40/4/1 2/4/1 38/4/1
f 40/4/1 38/4/1 39/4/1
f 41/4/2 42/4/2 43/4/2
f 43/4/2 42/4/2 44/4/2
f 44/4/2 42/4/2 45/4/2
f 45/4/2 42/4/2 46/4/2
f 46/4/2 42/4/2 47/4/2
f 47/4/2 42/4/2 48/4/2
f 41/4/2 43/4/2 49/4/2
f 43/1/2 44/1/2 49/1/2
f 44/4/2 45/4/2 50/4/2
f 49/1/2 44/1/2 50/1/2
f 45/3/2 46/3/2 51/3/2
f 50/4/2 45/4/2 51/4/2
f 46/4/2 47/4/2 52/4/2
f 51/3/2 46/3/2 52/3/2
f 47/1/2 48/1/2 53/1/2
f 52/4/2 47/4/2 53/4/2
f 48/4/2 42/4/2 54/4/2
f 53/1/2 48/1/2 54/1/2
f 52/4/2 53/4/2 55/4/2
f 51/4/2 52/4/2 55/4/2
f 53/4/2 54/4/2 55/4/2
f 50/4/2 51/4/2 55/4/2
f 49/4/2 50/4/2 55/4/2
f 41/4/2 49/4/2 55/4/2
f 55/4/2 54/4/2 56/4/2
f 56/4/2 54/4/2 57/4/2
f 57/4/2 54/4/2 58/4/2
f 58/4/2 54/4/2 59/4/2
f 54/4/2 42/4/2 60/4/2
f 59/4/2 54/4/2 60/4/2
f 41/4/2 55/4/2 61/4/2
f 55/2/2 56/2/2 61/2/2
f 56/4/2 57/4/2 62/4/2
f 61/2/2 56/2/2 62/2/2
f 57/1/2 58/1/2 63/1/2
f 62/4/2 57/4/2 63/4/2
f 58/4/2 59/4/2 64/4/2
f 63/1/2 58/1/2 64/1/2
f 59/2/2 60/2/2 65/2/2
f 64/4/2 59/4/2 65/4/2
f 60/4/2 42/4/2 66/4/2
f 65/2/2 60/2/2 66/2/2
f 62/4/2 63/4/2 67/4/2
f 64/4/2 65/4/2 67/4/2
f 65/4/2 66/4/2 67/4/2
f 61/4/2 62/4/2 67/4/2
f 41/4/2 61/4/2 67/4/2
f 63/4/2 64/4/2 67/4/2
f 67/4/2 66/4/2 68/4/2
f 68/4/2 66/4/2 69/4/2
f 69/4/2 66/4/2 70/4/2
f 70/4/2 66/4/2 71/4/2
f 66/4/2 42/4/2 72/4/2
f 71/4/2 66/4/2 72/4/2
f 41/4/2 67/4/2 73/4/2
f 67/3/2 68/3/2 73/3/2
f 68/4/2 69/4/2 74/4/2
f 73/3/2 68/3/2 74/3/2
f 69/1/2 70/1/2 75/1/2
f 74/4/2 69/4/2 75/4/2
f 70/4/2 71/4/2 76/4/2
f 75/1/2 70/1/2 76/1/2
f 71/3/2 72/3/2 77/3/2
f 76/4/2 71/4/2 77/4/2
f 72/4/2 42/4/2 78/4/2
f 77/3/2 72/3/2 78/3/2
f 74/4/2 75/4/2 79/4/2
f 76/4/2 77/4/2 79/4/2
f 77/4/2 78/4/2 79/4/2
f 73/4/2 74/4/2 79/4/2
f 41/4/2 73/4/2 79/4/2
f 75/4/2 76/4/2 79/4/2
f 78/4/2 42/4/2 80/4/2
f 79/4/2 78/4/2 80/4/2
f 83/4/3 82/4/3 81/4/3
f 84/4/3 82/4/3 83/4/3
f 85/4/3 82/4/3 84/4/3
f 86/4/3 82/4/3 85/4/3
f 87/4/3 82/4/3 86/4/3
f 88/4/3 82/4/3 87/4/3
f 89/4/3 83/4/3 81/4/3
f 89/1/3 84/1/3 83/1/3
f 90/4/3 85/4/3 84/4/3
f 90/1/3 84/1/3 89/1/3
f 91/2/3 86/2/3 85/2/3
f 91/4/3 85/4/3 90/4/3
f 92/4/3 87/4/3 86/4/3
f 92/2/3 86/2/3 91/2/3
f 93/3/3 88/3/3 87/3/3
f 93/4/3 87/4/3 92/4/3
f 94/4/3 82/4/3 88/4/3
f 94/3/3 88/3/3 93/3/3
f 95/4/3 93/4/3 92/4/3
f 95/4/3 92/4/3 91/4/3
f 95/4/3 94/4/3 93/4/3
f 95/4/3 91/4/3 90/4/3
f 95/4/3 90/4/3 89/4/3
f 95/4/3 89/4/3 81/4/3
f 96/4/3 94/4/3 95/4/3
f 97/4/3 94/4/3 96/4/3
f 98/4/3 94/4/3 97/4/3
f 99/4/3 94/4/3 98/4/3
f 100/4/3 82/4/3 94/4/3
f 100/4/3 94/4/3 99/4/3
f 101/4/3 95/4/3 81/4/3
f 101/3/3 96/3/3 95/3/3
f 102/4/3 97/4/3 96/4/3
f 102/3/3 96/3/3 101/3/3
f 103/1/3 98/1/3 97/1/3
f 103/4/3 97/4/3 102/4/3
f 104/4/3 99/4/3 98/4/3
f 104/1/3 98/1/3 103/1/3
f 105/1/3 100/1/3 99/1/3
f 105/4/3 99/4/3 104/4/3
f 106/4/3 82/4/3 100/4/3
f 106/1/3 100/1/3 105/1/3
f 107/4/3 103/4/3 102/4/3
f 107/4/3 105/4/3 104/4/3
f 107/4/3 106/4/3 105/4/3
f 107/4/3 102/4/3 101/4/3
f 107/4/3 101/4/3 81/4/3
f 107/4/3 104/4/3 103/4/3
f 108/4/3 106/4/3 107/4/3
f 109/4/3 106/4/3 108/4/3
f 110/4/3 106/4/3 109/4/3
f 111/4/3 106/4/3 110/4/3
f 112/4/3 82/4/3 106/4/3
f 112/4/3 106/4/3 111/4/3
f 113/4/3 107/4/3 81/4/3
f 113/1/3 108/1/3 107/1/3
f 114/4/3 109/4/3 108/4/3
f 114/1/3 108/1/3 113/1/3
f 115/2/3 110/2/3 109/2/3
f 115/4/3 109/4/3 114/4/3
f 116/4/3 111/4/3 110/4/3
f 116/2/3 110/2/3 115/2/3
f 117/3/3 112/3/3 111/3/3
f 117/4/3 111/4/3 116/4/3
f 118/4/3 82/4/3 112/4/3
f 118/3/3 112/3/3 117/3/3
f 119/4/3 115/4/3 114/4/3
f 119/4/3 117/4/3 116/4/3
f 119/4/3 118/4/3 117/4/3
f 119/4/3 114/4/3 113/4/3
f 119/4/3 113/4/3 81/4/3
f 119/4/3 116/4/3 115/4/3
f 120/4/3 82/4/3 118/4/3
f 120/4/3 118/4/3 119/4/3
f 121/4/4 122/4/4 123/4/4
f 123/4/4 122/4/4 124/4/4
f 124/4/4 122/4/4 125/4/4
f 125/4/4 122/4/4 126/4/4
f 126/4/4 122/4/4 127/4/4
f 127/4/4 122/4/4 128/4/4
f 121/4/4 123/4/4 129/4/4
f 123/1/4 124/1/4 129/1/4
f 124/4/4 125/4/4 130/4/4
f 129/1/4 124/1/4 130/1/4
f 125/2/4 126/2/4 131/2/4
f 130/4/4 125/4/4 131/4/4
f 126/4/4 127/4/4 132/4/4
f 131/2/4 126/2/4 132/2/4
f 127/3/4 128/3/4 133/3/4
f 132/4/4 127/4/4 133/4/4
f 128/4/4 122/4/4 134/4/4
f 133/3/4 128/3/4 134/3/4
f 132/4/4 133/4/4 135/4/4
f 131/4/4 132/4/4 135/4/4
f 133/4/4 134/4/4 135/4/4
f 130/4/4 131/4/4 135/4/4
f 129/4/4 130/4/4 135/4/4
f 121/4/4 129/4/4 135/4/4
f 135/4/4 134/4/4 136/4/4
f 136/4/4 134/4/4 137/4/4
f 137/4/4 134/4/4 138/4/4
f 138/4/4 134/4/4 139/4/4
f 134/4/4 122/4/4 140/4/4
f 139/4/4 134/4/4 140/4/4
f 121/4/4 135/4/4 141/4/4
f 135/3/4 136/3/4 141/3/4
f 136/4/4 137/4/4 142/4/4
f 141/3/4 136/3/4 142/3/4
f 137/1/4 138/1/4 143/1/4
f 142/4/4 137/4/4 143/4/4
f 138/4/4 139/4/4 144/4/4
f 143/1/4 138/1/4 144/1/4
f 139/1/4 140/1/4 145/1/4
f 144/4/4 139/4/4 145/4/4
f 140/4/4 122/4/4 146/4/4
f 145/1/4 140/1/4 146/1/4
f 142/4/4 143/4/4 147/4/4
f 144/4/4 145/4/4 147/4/4
f 145/4/4 146/4/4 147/4/4
f 141/4/4 142/4/4 147/4/4
f 121/4/4 141/4/4 147/4/4
f 143/4/4 144/4/4 147/4/4
f 147/4/4 146/4/4 148/4/4
f 148/4/4 146/4/4 149/4/4
f 149/4/4 146/4/4 150/4/4
f 150/4/4 146/4/4 151/4/4
f 146/4/4 122/4/4 152/4/4
f 151/4/4 146/4/4 152/4/4
f 121/4/4 147/4/4 153/4/4
f 147/1/4 148/1/4 153/1/4
f 148/4/4 149/4/4 154/4/4
f 153/1/4 148/1/4 154/1/4
f 149/2/4 150/2/4 155/2/4
f 154/4/4 149/4/4 155/4/4
f 150/4/4 151/4/4 156/4/4
f 155/2/4 150/2/4 156/2/4
f 151/3/4 152/3/4 157/3/4
f 156/4/4 151/4/4 157/4/4
f 152/4/4 122/4/4 158/4/4
f 157/3/4 152/3/4 158/3/4
f 154/4/4 155/4/4 159/4/4
f 156/4/4 157/4/4 159/4/4
f 157/4/4 158/4/4 159/4/4
f 153/4/4 154/4/4 159/4/4
f 121/4/4 153/4/4 159/4/4
f 155/4/4 156/4/4 159/4/4
f 158/4/4 122/4/4 160/4/4
f 159/4/4 158/4/4 160/4/4
f 163/4/5 162/4/5 161/4/5
f 164/4/5 162/4/5 163/4/5
f 165/4/5 162/4/5 164/4/5
f 166/4/5 162/4/5 165/4/5
f 167/4/5 162/4/5 166/4/5
f 168/4/5 162/4/5 167/4/5
f 169/4/5 163/4/5 161/4/5
f 169/1/5 164/1/5 163/1/5
f 170/4/5 165/4/5 164/4/5
f 170/1/5 164/1/5 169/1/5
f 171/2/5 166/2/5 165/2/5
f 171/4/5 165/4/5 170/4/5
f 172/4/5 167/4/5 166/4/5
f 172/2/5 166/2/5 171/2/5
f 173/3/5 168/3/5 167/3/5
f 173/4/5 167/4/5 172/4/5
f 174/4/5 162/4/5 168/4/5
f 174/3/5 168/3/5 173/3/5
f 175/4/5 173/4/5 172/4/5
f 175/4/5 172/4/5 171/4/5
f 175/4/5 174/4/5 173/4/5
f 175/4/5 171/4/5 170/4/5
f 175/4/5 170/4/5 169/4/5
f 175/4/5 169/4/5 161/4/5
f 176/4/5 174/4/5 175/4/5
f 177/4/5 174/4/5 176/4/5
f 178/4/5 174/4/5 177/4/5
f 179/4/5 174/4/5 178/4/5
f 180/4/5 162/4/5 174/4/5
f 180/4/5 174/4/5 179/4/5
f 181/4/5 175/4/5 161/4/5
f 181/3/5 176/3/5 175/3/5
f 182/4/5 177/4/5 176/4/5
f 182/3/5 176/3/5 181/3/5
f 183/1/5 178/1/5 177/1/5
f 183/4/5 177/4/5 182/4/5
f 184/4/5 179/4/5 178/4/5
f 184/1/5 178/1/5 183/1/5
f 185/1/5 180/1/5 179/1/5
f 185/4/5 179/4/5 184/4/5
f 186/4/5 162/4/5 180/4/5
f 186/1/5 180/1/5 185/1/5
f 187/4/5 183/4/5 182/4/5
f 187/4/5 185/4/5 184/4/5
f 187/4/5 186/4/5 185/4/5
f 187/4/5 182/4/5 181/4/5
f 187/4/5 181/4/5 161/4/5
f 187/4/5 184/4/5 183/4/5
f 188/4/5 186/4/5 187/4/5
f 189/4/5 186/4/5 188/4/5
f 190/4/5 186/4/5 189/4/5
f 191/4/5 186/4/5 190/4/5
f 192/4/5 162/4/5 186/4/5
f 192/4/5 186/4/5 191/4/5
f 193/4/5 187/4/5 161/4/5
f 193/1/5 188/1/5 187/1/5
f 194/4/5 189/4/5 188/4/5
f 194/1/5 188/1/5 193/1/5
f 195/2/5 190/2/5 189/2/5
f 195/4/5 189/4/5 194/4/5
f 196/4/5 191/4/5 190/4/5
f 196/2/5 190/2/5 195/2/5
f 197/3/5 192/3/5 191/3/5
f 197/4/5 191/4/5 196/4/5
f 198/4/5 162/4/5 192/4/5
f 198/3/5 192/3/5 197/3/5
f 199/4/5 195/4/5 194/4/5
f 199/4/5 197/4/5 196/4/5
f 199/4/5 198/4/5 197/4/5
f 199/4/5 194/4/5 193/4/5
f 199/4/5 193/4/5 161/4/5
f 199/4/5 196/4/5 195/4/5
f 200/4/5 162/4/5 198/4/5
f 200/4/5 198/4/5 199/4/5
f 201/4/6 202/4/6 203/4/6
f 203/4/6 202/4/6 204/4/6
f 204/4/6 202/4/6 205/4/6
f 205/4/6 202/4/6 206/4/6
f 206/4/6 202/4/6 207/4/6
f 207/4/6 202/4/6 208/4/6
f 201/4/6 203/4/6 209/4/6
f 203/3/6 204/3/6 209/3/6
f 204/4/6 205/4/6 210/4/6
f 209/3/6 204/3/6 210/3/6
f 205/2/6 206/2/6 211/2/6
f 210/4/6 205/4/6 211/4/6
f 206/4/6 207/4/6 212/4/6
f 211/2/6 206/2/6 212/2/6
f 207/1/6 208/1/6 213/1/6
f 212/4/6 207/4/6 213/4/6
f 208/4/6 202/4/6 214/4/6
f 213/1/6 208/1/6 214/1/6
f 212/4/6 213/4/6 215/4/6
f 211/4/6 212/4/6 215/4/6
f 213/4/6 214/4/6 215/4/6
f 210/4/6 211/4/6 215/4/6
f 209/4/6 210/4/6 215/4/6
f 201/4/6 209/4/6 215/4/6
f 215/4/6 214/4/6 216/4/6
f 216/4/6 214/4/6 217/4/6
f 217/4/6 214/4/6 218/4/6
f 218/4/6 214/4/6 219/4/6
f 214/4/6 202/4/6 220/4/6
f 219/4/6 214/4/6 220/4/6
f 201/4/6 215/4/6 221/4/6
f 215/1/6 216/1/6 221/1/6
f 216/4/6 217/4/6 222/4/6
f 221/1/6 216/1/6 222/1/6
f 217/1/6 218/1/6 223/1/6
f 222/4/6 217/4/6 223/4/6
f 218/4/6 219/4/6 224/4/6
f 223/1/6 218/1/6 224/1/6
f 219/3/6 220/3/6 225/3/6
f 224/4/6 219/4/6 225/4/6
f 220/4/6 202/4/6 226/4/6
f 225/3/6 220/3/6 226/3/6
f 222/4/6 223/4/6 227/4/6
f 224/4/6 225/4/6 227/4/6
f 225/4/6 226/4/6 227/4/6
f 221/4/6 222/4/6 227/4/6
f 201/4/6 221/4/6 227/4/6
f 223/4/6 224/4/6 227/4/6
f 227/4/6 226/4/6 228/4/6
f 228/4/6 226/4/6 229/4/6
f 229/4/6 226/4/6 230/4/6
f 230/4/6 226/4/6 231/4/6
f 226/4/6 202/4/6 232/4/6
f 231/4/6 226/4/6 232/4/6
f 201/4/6 227/4/6 233/4/6
f 227/3/6 228/3/6 233/3/6
f 228/4/6 229/4/6 234/4/6
f 233/3/6 228/3/6 234/3/6
f 229/2/6 230/2/6 235/2/6
f 234/4/6 229/4/6 235/4/6
f 230/4/6 231/4/6 236/4/6
f 235/2/6 230/2/6 236/2/6
f 231/1/6 232/1/6 237/1/6
f 236/4/6 231/4/6 237/4/6
f 232/4/6 202/4/6 238/4/6
f 237/1/6 232/1/6 238/1/6
f 234/4/6 235/4/6 239/4/6
f 236/4/6 237/4/6 239/4/6
f 237/4/6 238/4/6 239/4/6
f 233/4/6 234/4/6 239/4/6
f 201/4/6 233/4/6 239/4/6
f 235/4/6 236/4/6 239/4/6
f 238/4/6 202/4/6 240/4/6
f 239/4/6 238/4/6 240/4/6
